<svg width="24" height="24" viewBox="0 0 24 24" fill="none" xmlns="http://www.w3.org/2000/svg">
<g id="vuesax/outline/dislike">
<g id="dislike">
<path id="Vector" d="M10.1237 21.4815L10.1148 21.4782L10.1059 21.4753C9.09577 21.144 8.44416 20.0127 8.66849 18.9872L8.67175 18.9723L8.6741 18.9572L9.1641 15.8072L9.16413 15.8073L9.16501 15.8011C9.18175 15.684 9.20207 15.3977 8.98633 15.1511L8.97536 15.1386L8.96359 15.1268C8.81687 14.9801 8.61841 14.9004 8.41004 14.9004H4.41004C3.56937 14.9004 2.88252 14.5515 2.48884 13.9925L2.4877 13.9909C2.10371 13.4502 2.00931 12.7155 2.27994 11.9713L2.28263 11.9638L2.28509 11.9564L4.67509 4.67635L4.68035 4.66034L4.68451 4.64402C4.99418 3.43044 6.33272 2.40039 7.72004 2.40039H11.52C11.7591 2.40039 12.1599 2.43785 12.5704 2.54921C12.9878 2.66243 13.3596 2.83704 13.5965 3.07394L13.6191 3.09657L13.6444 3.11612L16.2785 5.15035L15.9705 5.54873L13.2875 3.4716C13.0799 3.27679 12.7837 3.14179 12.5061 3.05461C12.2031 2.95945 11.8551 2.90039 11.52 2.90039H7.72004C7.1429 2.90039 6.57353 3.12784 6.12508 3.45974C5.68428 3.786 5.30892 4.2519 5.16964 4.79068L2.75738 12.1172C2.56223 12.6595 2.57147 13.2413 2.90365 13.7017C3.24182 14.1766 3.81577 14.4004 4.42004 14.4004H8.42004C8.79702 14.4004 9.13867 14.559 9.37252 14.8282L9.37315 14.829C9.61286 15.1039 9.72457 15.475 9.66568 15.8755C9.6656 15.876 9.66552 15.8766 9.66544 15.8771L9.16795 19.0709C9.00242 19.8846 9.533 20.7433 10.2933 21.0018C10.6685 21.1396 11.0675 21.0983 11.3857 20.9922C11.7001 20.8874 12.0218 20.6903 12.2121 20.4137L12.2121 20.4137L12.215 20.4093L16.0351 14.7258L16.4472 15.0049L12.6251 20.6915L12.6249 20.6917C12.259 21.2366 11.5347 21.6004 10.8 21.6004C10.5668 21.6004 10.3358 21.5601 10.1237 21.4815Z" fill="#171515" stroke="#171515"/>
<path id="Vector_2" d="M19.6201 18.1H18.6201C16.7701 18.1 15.8701 17.23 15.8701 15.45V5.65C15.8701 3.87 16.7701 3 18.6201 3H19.6201C21.4701 3 22.3701 3.87 22.3701 5.65V15.45C22.3701 17.23 21.4701 18.1 19.6201 18.1ZM18.6201 4.5C17.5301 4.5 17.3701 4.76 17.3701 5.65V15.45C17.3701 16.34 17.5301 16.6 18.6201 16.6H19.6201C20.7101 16.6 20.8701 16.34 20.8701 15.45V5.65C20.8701 4.76 20.7101 4.5 19.6201 4.5H18.6201Z" fill="#171515"/>
</g>
</g>
</svg>
