<svg width="20" height="20" viewBox="0 0 20 20" fill="none" xmlns="http://www.w3.org/2000/svg">
<g id="vuesax/bold/heart">
<g id="heart">
<path id="Vector" d="M9.51688 5.44302L9.83422 5.86719L10.1516 5.44302C10.8809 4.46822 12.0496 3.83431 13.3536 3.83431C15.5663 3.83431 17.3644 5.63664 17.3644 7.8689C17.3644 8.76905 17.2208 9.59985 16.9715 10.3706L16.9706 10.3732C16.3728 12.265 15.1478 13.7897 13.8255 14.9261C12.5015 16.064 11.1028 16.7928 10.198 17.1006L10.198 17.1006L10.1938 17.1021C10.1146 17.13 9.98423 17.1508 9.83422 17.1508C9.6842 17.1508 9.55382 17.13 9.47468 17.1021L9.47469 17.1021L9.47044 17.1006C8.56566 16.7928 7.16695 16.064 5.84294 14.9261C4.52068 13.7897 3.29561 12.265 2.6978 10.3732L2.69781 10.3732L2.69697 10.3706C2.44762 9.59985 2.30404 8.76905 2.30404 7.8689C2.30404 5.63664 4.10215 3.83431 6.31485 3.83431C7.61884 3.83431 8.78758 4.46822 9.51688 5.44302Z" fill="#00B709" stroke="#00B709" stroke-width="0.79265"/>
</g>
</g>
</svg>
