<svg width="14" height="14" viewBox="0 0 14 14" fill="none" xmlns="http://www.w3.org/2000/svg">
<path id="Vector" d="M4.77831 6.99992C4.77831 5.77267 5.77297 4.77752 7.00027 4.77752C8.22757 4.77752 9.22276 5.77267 9.22276 6.99992C9.22276 8.22717 8.22757 9.22232 7.00027 9.22232C5.77297 9.22232 4.77831 8.22717 4.77831 6.99992ZM3.57688 6.99992C3.57688 8.89058 5.10953 10.4232 7.00027 10.4232C8.89101 10.4232 10.4237 8.89058 10.4237 6.99992C10.4237 5.10925 8.89101 3.57667 7.00027 3.57667C5.10953 3.57667 3.57688 5.10925 3.57688 6.99992ZM9.75915 3.44093C9.75909 3.59916 9.80595 3.75385 9.8938 3.88544C9.98166 4.01704 10.1066 4.11962 10.2527 4.18023C10.3989 4.24084 10.5597 4.25675 10.7149 4.22594C10.8702 4.19514 11.0127 4.119 11.1247 4.00716C11.2366 3.89533 11.3128 3.75281 11.3438 3.59764C11.3747 3.44247 11.3589 3.28161 11.2984 3.1354C11.2379 2.9892 11.1355 2.86421 11.0039 2.77625C10.8724 2.6883 10.7177 2.64132 10.5595 2.64125H10.5592C10.3471 2.64135 10.1437 2.72562 9.9937 2.87556C9.84369 3.0255 9.75934 3.22884 9.75915 3.44093ZM4.30683 12.4264C3.65683 12.3968 3.30353 12.2886 3.06875 12.1971C2.75749 12.0759 2.5354 11.9316 2.30189 11.6984C2.06839 11.4653 1.92385 11.2434 1.80321 10.9321C1.71168 10.6975 1.60341 10.3441 1.57387 9.69411C1.54154 8.99139 1.53509 8.78029 1.53509 6.99997C1.53509 5.21965 1.54208 5.00915 1.57387 4.30584C1.60347 3.65587 1.71254 3.30317 1.80321 3.06781C1.92439 2.75656 2.06871 2.53448 2.30189 2.30099C2.53508 2.06749 2.75695 1.92296 3.06875 1.80232C3.30343 1.7108 3.65683 1.60253 4.30683 1.57299C5.00958 1.54067 5.22068 1.53421 7.00027 1.53421C8.77986 1.53421 8.99118 1.5412 9.69451 1.57299C10.3445 1.60259 10.6972 1.71165 10.9326 1.80232C11.2439 1.92296 11.4659 2.06781 11.6994 2.30099C11.9329 2.53416 12.077 2.75656 12.1981 3.06781C12.2897 3.30248 12.3979 3.65587 12.4275 4.30584C12.4598 5.00915 12.4662 5.21965 12.4662 6.99997C12.4662 8.78029 12.4598 8.9908 12.4275 9.69411C12.3979 10.3441 12.2891 10.6974 12.1981 10.9321C12.077 11.2434 11.9326 11.4655 11.6994 11.6984C11.4663 11.9314 11.2439 12.0759 10.9326 12.1971C10.6979 12.2886 10.3445 12.3969 9.69451 12.4264C8.99176 12.4587 8.78066 12.4652 7.00027 12.4652C5.21988 12.4652 5.00936 12.4587 4.30683 12.4264ZM4.25163 0.373625C3.54189 0.405945 3.05691 0.518479 2.63337 0.683279C2.19474 0.853465 1.82342 1.08179 1.45237 1.45224C1.08131 1.82269 0.85357 2.19459 0.683377 2.6332C0.51857 3.05699 0.406032 3.54168 0.373711 4.25139C0.340856 4.96221 0.333336 5.18947 0.333336 6.99992C0.333336 8.81037 0.340856 9.03763 0.373711 9.74845C0.406032 10.4582 0.51857 10.9429 0.683377 11.3666C0.85357 11.805 1.08137 12.1773 1.45237 12.5476C1.82337 12.9179 2.19474 13.1459 2.63337 13.3166C3.05771 13.4814 3.54189 13.5939 4.25163 13.6262C4.96285 13.6585 5.18974 13.6666 7.00027 13.6666C8.81079 13.6666 9.03806 13.6591 9.74891 13.6262C10.4587 13.5939 10.9434 13.4814 11.3672 13.3166C11.8055 13.1459 12.1771 12.9181 12.5482 12.5476C12.9192 12.1771 13.1465 11.805 13.3172 11.3666C13.482 10.9429 13.595 10.4582 13.6268 9.74845C13.6591 9.03709 13.6667 8.81037 13.6667 6.99992C13.6667 5.18947 13.6591 4.96221 13.6268 4.25139C13.5945 3.54163 13.482 3.05672 13.3172 2.6332C13.1465 2.19485 12.9186 1.82328 12.5482 1.45224C12.1777 1.0812 11.8055 0.853465 11.3677 0.683279C10.9434 0.518479 10.4586 0.405412 9.74944 0.373625C9.03859 0.341305 8.81133 0.333252 7.0008 0.333252C5.19028 0.333252 4.96285 0.340772 4.25163 0.373625Z" fill="#999999"/>
</svg>
