<svg width="25" height="24" viewBox="0 0 25 24" fill="none" xmlns="http://www.w3.org/2000/svg">
<path d="M5.49988 21.87C4.75988 21.87 4.02988 21.59 3.46988 21.03C2.92988 20.49 2.62988 19.77 2.62988 19C2.62988 18.23 2.92988 17.51 3.46988 16.97L16.4699 3.97C17.5899 2.85 19.4099 2.85 20.5299 3.97C21.0699 4.51 21.3699 5.23 21.3699 6C21.3699 6.77 21.0699 7.49 20.5299 8.03L7.52988 21.03C6.96988 21.59 6.23988 21.87 5.49988 21.87ZM18.4999 4.63001C18.1499 4.63001 17.7999 4.76001 17.5299 5.03001L4.52988 18.03C4.26988 18.29 4.12988 18.63 4.12988 19C4.12988 19.37 4.26988 19.71 4.52988 19.97C5.05988 20.5 5.93988 20.5 6.46988 19.97L19.4699 6.97C19.7299 6.71 19.8699 6.37 19.8699 6C19.8699 5.63 19.7299 5.29001 19.4699 5.03001C19.1999 4.76001 18.8499 4.63001 18.4999 4.63001Z" fill="#00B709"/>
<path d="M18.5102 9.74005C18.3202 9.74005 18.1302 9.67005 17.9802 9.52005L14.9802 6.52005C14.6902 6.23005 14.6902 5.75005 14.9802 5.46005C15.2702 5.17005 15.7502 5.17005 16.0402 5.46005L19.0402 8.46005C19.3302 8.75005 19.3302 9.23005 19.0402 9.52005C18.8902 9.67005 18.7002 9.74005 18.5102 9.74005Z" fill="#00B709"/>
<path d="M10.5001 5.50005C10.4501 5.50005 10.4101 5.49005 10.3601 5.48005L9.00005 5.08005L7.64005 5.48005C7.46005 5.53005 7.27005 5.48005 7.15005 5.35005C7.02005 5.22005 6.97005 5.04005 7.02005 4.86005L7.42005 3.50005L7.02005 2.14005C6.97005 1.96005 7.02005 1.77005 7.15005 1.65005C7.28005 1.52005 7.47005 1.47005 7.64005 1.52005L9.00005 1.92005L10.3601 1.52005C10.5401 1.47005 10.7201 1.52005 10.8501 1.65005C10.9801 1.78005 11.0301 1.97005 10.9801 2.14005L10.5801 3.50005L10.9801 4.86005C11.0301 5.04005 10.9801 5.23005 10.8501 5.35005C10.7601 5.45005 10.6301 5.50005 10.5001 5.50005ZM9.00005 4.06005C9.05005 4.06005 9.09005 4.07005 9.14005 4.08005L9.76005 4.26005L9.58005 3.64005C9.55005 3.55005 9.55005 3.45005 9.58005 3.36005L9.76005 2.74005L9.14005 2.92005C9.05005 2.95005 8.95005 2.95005 8.86005 2.92005L8.24005 2.74005L8.42005 3.36005C8.45005 3.45005 8.45005 3.55005 8.42005 3.64005L8.24005 4.26005L8.86005 4.08005C8.91005 4.07005 8.95005 4.06005 9.00005 4.06005Z" fill="#00B709"/>
<path d="M6.50005 11.5001C6.45005 11.5001 6.41005 11.4901 6.36005 11.4801L5.00005 11.0801L3.64005 11.4801C3.46005 11.5301 3.28005 11.4801 3.15005 11.3501C3.02005 11.2201 2.97005 11.0301 3.02005 10.8601L3.42005 9.50005L3.02005 8.14005C2.97005 7.96005 3.02005 7.77005 3.15005 7.65005C3.28005 7.53005 3.47005 7.47005 3.64005 7.52005L5.00005 7.92005L6.36005 7.52005C6.53005 7.47005 6.72005 7.52005 6.85005 7.65005C6.98005 7.78005 7.03005 7.97005 6.98005 8.14005L6.58005 9.50005L6.98005 10.8601C7.03005 11.0401 6.98005 11.2301 6.85005 11.3501C6.76005 11.4501 6.63005 11.5001 6.50005 11.5001ZM5.00005 10.0601C5.05005 10.0601 5.09005 10.0701 5.14005 10.0801L5.76005 10.2601L5.58005 9.64005C5.55005 9.55005 5.55005 9.45005 5.58005 9.36005L5.76005 8.74005L5.14005 8.92005C5.05005 8.95005 4.95005 8.95005 4.86005 8.92005L4.24005 8.74005L4.42005 9.36005C4.45005 9.45005 4.45005 9.55005 4.42005 9.64005L4.24005 10.2601L4.86005 10.0801C4.91005 10.0701 4.95005 10.0601 5.00005 10.0601Z" fill="#00B709"/>
<path d="M21.5001 16.5001C21.4501 16.5001 21.4101 16.4901 21.3601 16.4801L20.0001 16.0801L18.6401 16.4801C18.4601 16.5301 18.2801 16.4801 18.1501 16.3501C18.0201 16.2201 17.9701 16.0301 18.0201 15.8601L18.4201 14.5001L18.0201 13.1401C17.9701 12.9601 18.0201 12.7701 18.1501 12.6501C18.2801 12.5301 18.4701 12.4701 18.6401 12.5201L20.0001 12.9201L21.3601 12.5201C21.5301 12.4701 21.7201 12.5201 21.8501 12.6501C21.9801 12.7801 22.0301 12.9701 21.9801 13.1401L21.5801 14.5001L21.9801 15.8601C22.0301 16.0401 21.9801 16.2301 21.8501 16.3501C21.7601 16.4501 21.6301 16.5001 21.5001 16.5001ZM20.0001 15.0601C20.0501 15.0601 20.0901 15.0701 20.1401 15.0801L20.7601 15.2601L20.5801 14.6401C20.5501 14.5501 20.5501 14.4501 20.5801 14.3601L20.7601 13.7401L20.1401 13.9201C20.0501 13.9501 19.9501 13.9501 19.8601 13.9201L19.2401 13.7401L19.4201 14.3601C19.4501 14.4501 19.4501 14.5501 19.4201 14.6401L19.2401 15.2601L19.8601 15.0801C19.9101 15.0701 19.9501 15.0601 20.0001 15.0601Z" fill="#00B709"/>
</svg>
