<svg width="24" height="24" viewBox="0 0 24 24" fill="none" xmlns="http://www.w3.org/2000/svg">
<path d="M6.22726 16.1126L6.22727 16.1126L6.22796 16.1095C6.30602 15.7618 6.26955 15.3768 6.17337 15.0401C6.07732 14.704 5.90509 14.3579 5.65366 14.1064L3.22366 11.6764C2.52834 10.9811 2.36779 10.3584 2.50614 9.913C2.65436 9.46681 3.14277 9.058 4.11308 8.89307C4.11333 8.89303 4.11357 8.89298 4.11381 8.89294L7.2323 8.3732L7.23231 8.37323L7.23762 8.37228C7.5583 8.31527 7.87831 8.15433 8.14069 7.96203C8.40288 7.76985 8.65459 7.51184 8.80512 7.21794L8.80515 7.21795L8.80758 7.21309L10.5264 3.76541C10.5266 3.76503 10.5268 3.76464 10.527 3.76426C10.9905 2.84711 11.5369 2.5 12.0001 2.5C12.4633 2.5 13.0097 2.84711 13.4732 3.76426C13.4734 3.76464 13.4736 3.76503 13.4738 3.76541L15.1926 7.21309L15.1929 7.21361C15.2858 7.39948 15.4201 7.57014 15.5736 7.71938L5.94077 17.3522L6.22726 16.1126Z" fill="#F0A719" stroke="#F0A719"/>
<path d="M18.7 14.4599C18.34 14.8199 18.14 15.5099 18.26 15.9999L18.95 19.0099C19.24 20.2599 19.06 21.1999 18.44 21.6499C18.19 21.8299 17.89 21.9199 17.54 21.9199C17.03 21.9199 16.43 21.7299 15.77 21.3399L12.84 19.5999C12.38 19.3299 11.62 19.3299 11.16 19.5999L8.23005 21.3399C7.12005 21.9899 6.17005 22.0999 5.56005 21.6499C5.33005 21.4799 5.16005 21.2499 5.05005 20.9499L17.21 8.7899C17.67 8.3299 18.32 8.1199 18.95 8.2299L19.96 8.3999C21.02 8.5799 21.73 9.0599 21.96 9.7599C22.18 10.4599 21.88 11.2699 21.12 12.0299L18.7 14.4599Z" fill="#F0A719"/>
</svg>
