<svg width="14" height="14" viewBox="0 0 14 14" fill="none" xmlns="http://www.w3.org/2000/svg">
<g id="Frame 521">
<path id="Vector" d="M0.962427 6.32157C4.72052 4.74101 7.2265 3.699 8.48037 3.19555C12.0604 1.75811 12.8043 1.50841 13.2892 1.50008C13.3958 1.49835 13.6343 1.52387 13.7887 1.64485C13.9192 1.74701 13.955 1.885 13.9722 1.98186C13.9894 2.07871 14.0108 2.29935 13.9938 2.47175C13.7998 4.4395 12.9603 9.2147 12.5332 11.4186C12.3525 12.3512 11.9967 12.6639 11.6522 12.6945C10.9036 12.761 10.3351 12.2169 9.61007 11.758C8.47546 11.0401 7.83448 10.5932 6.73315 9.89255C5.46037 9.08289 6.28546 8.63789 7.01081 7.91063C7.20064 7.7203 10.4991 4.82413 10.5629 4.5614C10.5709 4.52854 10.5783 4.40606 10.503 4.34139C10.4276 4.27671 10.3163 4.29883 10.236 4.31642C10.1222 4.34135 8.3097 5.49784 4.7984 7.78588C4.28392 8.12691 3.81791 8.29308 3.40039 8.28437C2.9401 8.27477 2.05469 8.03314 1.39648 7.8266C0.589162 7.57327 -0.0524811 7.43934 0.00339163 7.0091C0.0324936 6.78501 0.352172 6.55584 0.962427 6.32157Z" fill="#999999"/>
</g>
</svg>
